<svg xmlns="http://www.w3.org/2000/svg" viewBox="0 0 79.12 87.17"><defs><style>.cls-1{opacity:0.12;}.cls-2,.cls-6{fill:#aaa;}.cls-3{fill:#ebf0f9;}.cls-4{fill:#c2d0e1;}.cls-5{fill:#fff;}.cls-6{opacity:0.5;}.cls-7{fill:#606060;}.cls-8{fill:#ed4245;}.cls-9{fill:#c13038;}</style></defs><title>Asset 280</title><g id="Layer_2" data-name="Layer 2"><g id="Layer_1-2" data-name="Layer 1"><g class="cls-1"><path class="cls-2" d="M3.49,21.31C3.68,16.17,5.87,11,9.94,7.85S20,4,24.36,6.77c1.31.83,2.43,1.94,3.74,2.76,4.15,2.61,9.55,2.06,14.22.58s9.1-3.83,13.93-4.62S66.73,5.89,69.38,10s1.19,10.2-2.61,13.4c-3.23,2.71-8,4-9.74,7.8a13.46,13.46,0,0,0-.87,5.36C56,41.74,56,47.33,59.07,51.5a34.47,34.47,0,0,0,5.11,4.94c4,3.57,7.29,8.2,7.43,13.76a11.55,11.55,0,0,1-1,5.15c-2.81,6-9.21,6.74-14.88,6.31-4.35-.32-8.8-1.15-13,0-3.06.81-5.77,2.6-8.71,3.8a23.82,23.82,0,0,1-13.8,1.23,14.85,14.85,0,0,1-7.55-3.76c-4.23-4.25-4.16-11.1-3.13-17s2.74-12.07.87-17.76a20.45,20.45,0,0,0-1.84-3.93A37,37,0,0,1,3.41,22.1Z"/></g><path class="cls-3" d="M69.92,27.43V61.2A11.3,11.3,0,0,1,64.1,71a11.1,11.1,0,0,1-5.43,1.41H20.21a11,11,0,0,1-4.65-1A11.28,11.28,0,0,1,8.95,61.2V27.43A11.29,11.29,0,0,1,20.21,16.17H58.67A11.29,11.29,0,0,1,69.92,27.43Z"/><line class="cls-4" x1="4.58" y1="56.98" x2="4.27" y2="59.2"/><path class="cls-4" d="M4.48,59.7a.54.54,0,0,0,.32-.42l.31-2.22A.54.54,0,1,0,4,56.91l-.31,2.22a.54.54,0,0,0,.75.57Z"/><line class="cls-4" x1="3.31" y1="57.94" x2="5.53" y2="58.25"/><path class="cls-4" d="M5.75,58.75a.54.54,0,0,0-.14-1L3.39,57.4a.54.54,0,1,0-.15,1.07l2.22.31A.54.54,0,0,0,5.75,58.75Z"/><path class="cls-4" d="M.12,46.25a1.49,1.49,0,1,1,2,.78A1.49,1.49,0,0,1,.12,46.25Zm.75-.32A.68.68,0,1,0,1.22,45,.68.68,0,0,0,.87,45.93Z"/><circle class="cls-4" cx="3.44" cy="65.82" r="0.81" transform="translate(-25.91 6.81) rotate(-23.46)"/><path class="cls-4" d="M47.13,83.77a.62.62,0,0,1,1.07,0l.34.59.34.59a.62.62,0,0,1-.53.93H47a.62.62,0,0,1-.53-.93l.34-.59Z"/><line class="cls-4" x1="75.39" y1="39.16" x2="74.22" y2="41.07"/><path class="cls-4" d="M74.22,41.62a.54.54,0,0,0,.46-.26l1.17-1.91a.54.54,0,0,0-.93-.56l-1.17,1.91a.54.54,0,0,0,.46.82Z"/><line class="cls-4" x1="73.85" y1="39.54" x2="75.76" y2="40.7"/><path class="cls-4" d="M75.76,41.24a.54.54,0,0,0,.28-1l-1.91-1.17a.54.54,0,1,0-.56.93l1.91,1.17A.54.54,0,0,0,75.76,41.24Z"/><path class="cls-4" d="M72.32,29.72a1.49,1.49,0,1,1,1.49,1.49A1.49,1.49,0,0,1,72.32,29.72Zm.81,0a.68.68,0,1,0,.68-.68A.68.68,0,0,0,73.13,29.72Z"/><circle class="cls-4" cx="75.17" cy="51.15" r="0.81"/><path class="cls-4" d="M78.36,58.55a.62.62,0,0,0-1.07,0l-.34.59-.34.59a.62.62,0,0,0,.53.93H78.5a.62.62,0,0,0,.53-.93l-.34-.59Z"/><line class="cls-4" x1="33.19" y1="4.29" x2="35.1" y2="3.13"/><path class="cls-4" d="M35.64,3.13a.54.54,0,0,1-.26.46L33.47,4.75a.54.54,0,0,1-.56-.93l1.91-1.17a.54.54,0,0,1,.82.46Z"/><line class="cls-4" x1="33.56" y1="2.75" x2="34.73" y2="4.66"/><path class="cls-4" d="M35.27,4.66a.54.54,0,0,1-1,.28L33.1,3A.54.54,0,1,1,34,2.47l1.17,1.91A.54.54,0,0,1,35.27,4.66Z"/><path class="cls-4" d="M17.63,3.8a1.49,1.49,0,1,1-1.49-1.49A1.49,1.49,0,0,1,17.63,3.8Zm-2.17,0a.68.68,0,1,0,.68-.68A.68.68,0,0,0,15.46,3.8Z"/><circle class="cls-4" cx="51.69" cy="4.07" r="0.81"/><path class="cls-4" d="M64.51,1.83a.62.62,0,0,1,0-1.07L65.1.42l.59-.34a.62.62,0,0,1,.93.53V2a.62.62,0,0,1-.93.53l-.59-.34Z"/><path class="cls-4" d="M69.14,23.33v.31c-6.56-1.78-13.48-3.08-20.41-2.27-4.28.5-8.2,1.78-12.35,2.58a55.24,55.24,0,0,1-26.2-1.63c.8-3.2,5.35-5.68,10.78-5.68H58.23C64.23,16.64,69.14,19.65,69.14,23.33Z"/><circle class="cls-5" cx="25.06" cy="45.72" r="4.69"/><circle class="cls-5" cx="39.13" cy="45.72" r="4.69"/><circle class="cls-5" cx="53.2" cy="45.72" r="4.69"/><circle class="cls-5" cx="25.06" cy="59.79" r="4.69"/><circle class="cls-5" cx="39.13" cy="59.79" r="4.69"/><circle class="cls-5" cx="53.2" cy="59.79" r="4.69"/><path class="cls-4" d="M29.54,44.31a5,5,0,0,1,.21,1.41,4.69,4.69,0,1,1-9.38,0,5,5,0,0,1,.21-1.41,4.7,4.7,0,0,0,9,0Z"/><path class="cls-4" d="M48.51,45.72a5,5,0,0,1,.21-1.41,4.7,4.7,0,0,0,9,0,5,5,0,0,1,.21,1.41,4.69,4.69,0,1,1-9.38,0Z"/><path class="cls-4" d="M29.54,58.38a5,5,0,0,1,.21,1.41,4.69,4.69,0,0,1-9.38,0,5,5,0,0,1,.21-1.41,4.7,4.7,0,0,0,9,0Z"/><path class="cls-4" d="M57.68,58.38a5,5,0,0,1,.21,1.41,4.69,4.69,0,0,1-9.38,0,5,5,0,0,1,.21-1.41,4.7,4.7,0,0,0,9,0Z"/><path class="cls-4" d="M43.61,44.31a5,5,0,0,1,.21,1.41,4.69,4.69,0,1,1-9.38,0,5,5,0,0,1,.21-1.41,4.7,4.7,0,0,0,9,0Z"/><path class="cls-4" d="M43.61,58.38a5,5,0,0,1,.21,1.41,4.69,4.69,0,0,1-9.38,0,5,5,0,0,1,.21-1.41,4.7,4.7,0,0,0,9,0Z"/><path class="cls-6" d="M64.1,71a11.25,11.25,0,0,1-9.73,5.63H25.06a11.27,11.27,0,0,1-9.5-5.24,11,11,0,0,0,4.65,1H58.67A11.1,11.1,0,0,0,64.1,71Z"/><path class="cls-7" d="M29.59,37.34H20.21a1,1,0,1,1,0-2h9.38a1,1,0,1,1,0,2Z"/><path class="cls-7" d="M44.13,37.34H34.75a1,1,0,0,1,0-2h9.38a1,1,0,0,1,0,2Z"/><path class="cls-7" d="M58.67,37.34H49.29a1,1,0,0,1,0-2h9.38a1,1,0,0,1,0,2Z"/><path class="cls-7" d="M25.37,51.41a5.69,5.69,0,1,1,5.69-5.69A5.7,5.7,0,0,1,25.37,51.41Zm0-9.38a3.69,3.69,0,1,0,3.69,3.69A3.69,3.69,0,0,0,25.37,42Z"/><path class="cls-7" d="M39.44,51.41a5.69,5.69,0,1,1,5.69-5.69A5.7,5.7,0,0,1,39.44,51.41Zm0-9.38a3.69,3.69,0,1,0,3.69,3.69A3.69,3.69,0,0,0,39.44,42Z"/><path class="cls-7" d="M53.51,51.41a5.69,5.69,0,1,1,5.69-5.69A5.7,5.7,0,0,1,53.51,51.41Zm0-9.38a3.69,3.69,0,1,0,3.69,3.69A3.69,3.69,0,0,0,53.51,42Z"/><path class="cls-7" d="M25.37,65.48a5.69,5.69,0,1,1,5.69-5.69A5.7,5.7,0,0,1,25.37,65.48Zm0-9.38a3.69,3.69,0,1,0,3.69,3.69A3.69,3.69,0,0,0,25.37,56.1Z"/><path class="cls-7" d="M39.44,65.48a5.69,5.69,0,1,1,5.69-5.69A5.7,5.7,0,0,1,39.44,65.48Zm0-9.38a3.69,3.69,0,1,0,3.69,3.69A3.69,3.69,0,0,0,39.44,56.1Z"/><path class="cls-7" d="M53.51,65.48a5.69,5.69,0,1,1,5.69-5.69A5.7,5.7,0,0,1,53.51,65.48Zm0-9.38a3.69,3.69,0,1,0,3.69,3.69A3.69,3.69,0,0,0,53.51,56.1Z"/><rect class="cls-5" x="12.37" y="31.87" width="2" height="38"/><rect class="cls-5" x="15.87" y="31.87" width="1" height="39"/><path class="cls-7" d="M58.67,73.46H20.21a12,12,0,0,1-5.07-1.12A12.29,12.29,0,0,1,7.95,61.2V27.43A12.27,12.27,0,0,1,20.21,15.17H58.67A12.27,12.27,0,0,1,70.92,27.43V61.2A12.28,12.28,0,0,1,58.67,73.46ZM20.21,17.17A10.27,10.27,0,0,0,9.95,27.43V61.2a10.29,10.29,0,0,0,6,9.32,10,10,0,0,0,4.24.93H58.67a10,10,0,0,0,4.94-1.28,10.29,10.29,0,0,0,5.31-9V27.43A10.27,10.27,0,0,0,58.67,17.17Z"/><path class="cls-7" d="M68.52,32.65H10.36a1,1,0,1,1,0-2H68.52a1,1,0,0,1,0,2Z"/><rect class="cls-5" x="22.99" y="8.55" width="4.69" height="11.26" rx="2.16" ry="2.16"/><path class="cls-7" d="M25.67,20.8H25.3a3.16,3.16,0,0,1-3.16-3.16V10.71A3.16,3.16,0,0,1,25.3,7.55h.37a3.16,3.16,0,0,1,3.16,3.16v6.94A3.16,3.16,0,0,1,25.67,20.8ZM25.3,9.55a1.16,1.16,0,0,0-1.16,1.16v6.94A1.16,1.16,0,0,0,25.3,18.8h.37a1.16,1.16,0,0,0,1.16-1.16V10.71a1.16,1.16,0,0,0-1.16-1.16Z"/><rect class="cls-5" x="49.04" y="8.55" width="4.69" height="11.26" rx="2.16" ry="2.16"/><path class="cls-7" d="M51.72,20.8h-.37a3.16,3.16,0,0,1-3.16-3.16V10.71a3.16,3.16,0,0,1,3.16-3.16h.37a3.16,3.16,0,0,1,3.16,3.16v6.94A3.16,3.16,0,0,1,51.72,20.8ZM51.35,9.55a1.16,1.16,0,0,0-1.16,1.16v6.94a1.16,1.16,0,0,0,1.16,1.16h.37a1.16,1.16,0,0,0,1.16-1.16V10.71a1.16,1.16,0,0,0-1.16-1.16Z"/><circle class="cls-8" cx="25.41" cy="21.36" r="3.28"/><circle class="cls-8" cx="51.46" cy="21.36" r="3.28"/><path class="cls-9" d="M54.74,21.35a3.28,3.28,0,1,1-6.56,0,3,3,0,0,1,.16-1,3.27,3.27,0,0,0,6.24,0A3,3,0,0,1,54.74,21.35Z"/><path class="cls-9" d="M28.53,20.36a3,3,0,0,1,.16,1,3.28,3.28,0,1,1-6.56,0,3,3,0,0,1,.16-1,3.27,3.27,0,0,0,6.24,0Z"/><path class="cls-7" d="M25.41,25.64a4.28,4.28,0,1,1,4.28-4.28A4.29,4.29,0,0,1,25.41,25.64Zm0-6.57a2.28,2.28,0,1,0,2.28,2.28A2.29,2.29,0,0,0,25.41,19.08Z"/><path class="cls-7" d="M51.46,25.64a4.28,4.28,0,1,1,4.28-4.28A4.29,4.29,0,0,1,51.46,25.64Zm0-6.57a2.28,2.28,0,1,0,2.28,2.28A2.29,2.29,0,0,0,51.46,19.08Z"/></g></g></svg>