<svg xmlns="http://www.w3.org/2000/svg" viewBox="0 0 84.5 75.65"><defs><style>.cls-1{opacity:0.12;}.cls-2,.cls-8{fill:#aaa;}.cls-3{fill:#ebf0f9;}.cls-4{fill:#fff;}.cls-5{fill:#c2d0e1;}.cls-6{fill:#606060;}.cls-7{fill:#ed4245;}.cls-8{opacity:0.5;}</style></defs><title>Asset 320</title><g id="Layer_2" data-name="Layer 2"><g id="Layer_1-2" data-name="Layer 1"><g class="cls-1"><path class="cls-2" d="M6.11,15a16.46,16.46,0,0,1,5.94-12.4c3.75-2.89,9.3-3.53,13.29-1,1.21.77,2.24,1.79,3.45,2.55,3.82,2.4,8.8,1.9,13.1.53S50.27,1.14,54.72.41s9.64.36,12.09,4.16,1.1,9.4-2.41,12.34c-3,2.5-7.34,3.66-9,7.18A12.4,12.4,0,0,0,54.63,29C54.5,33.8,54.5,39,57.31,42.79A31.75,31.75,0,0,0,62,47.35c3.67,3.29,6.71,7.55,6.84,12.68a10.64,10.64,0,0,1-1,4.74c-2.59,5.56-8.49,6.2-13.71,5.82-4-.3-8.11-1.06-12,0-2.82.75-5.31,2.4-8,3.5a22,22,0,0,1-12.71,1.14,13.68,13.68,0,0,1-7-3.46c-3.89-3.92-3.83-10.22-2.88-15.66s2.53-11.12.8-16.36a18.84,18.84,0,0,0-1.7-3.62A34.09,34.09,0,0,1,6,15.7Z"/></g><path class="cls-3" d="M13.7,13.22H67.82a5.53,5.53,0,0,1,5.53,5.53V58.22a0,0,0,0,1,0,0H8.17a0,0,0,0,1,0,0V18.75A5.53,5.53,0,0,1,13.7,13.22Z"/><path class="cls-4" d="M73.35,18.75v3a5.53,5.53,0,0,0-5.53-5.53H13.7a5.54,5.54,0,0,0-5.53,5.53v-3a5.54,5.54,0,0,1,5.53-5.53H67.82A5.53,5.53,0,0,1,73.35,18.75Z"/><line class="cls-5" x1="83.12" y1="47.84" x2="82.83" y2="49.89"/><path class="cls-5" d="M83,50.35a.5.5,0,0,0,.3-.39l.28-2a.5.5,0,0,0-1-.14l-.28,2a.5.5,0,0,0,.69.53Z"/><line class="cls-5" x1="81.95" y1="48.72" x2="84" y2="49.01"/><path class="cls-5" d="M84.19,49.47a.5.5,0,0,0-.13-1l-2-.28a.5.5,0,1,0-.14,1l2,.28A.49.49,0,0,0,84.19,49.47Z"/><path class="cls-5" d="M79,38a1.38,1.38,0,1,1,1.81.71A1.38,1.38,0,0,1,79,38Zm.69-.3a.62.62,0,1,0,.32-.82A.63.63,0,0,0,79.7,37.66Z"/><circle class="cls-5" cx="82.07" cy="55.98" r="0.75" transform="translate(-15.5 37.29) rotate(-23.46)"/><line class="cls-5" x1="3.46" y1="28.48" x2="2.02" y2="29.95"/><path class="cls-5" d="M1.9,30.44a.5.5,0,0,0,.47-.14l1.45-1.47a.5.5,0,1,0-.71-.7L1.66,29.6a.5.5,0,0,0,.24.84Z"/><line class="cls-5" x1="2" y1="28.5" x2="3.47" y2="29.94"/><path class="cls-5" d="M3.36,30.43a.5.5,0,0,0,.46-.84L2.35,28.14a.5.5,0,1,0-.7.71L3.12,30.3A.49.49,0,0,0,3.36,30.43Z"/><path class="cls-5" d="M2.69,19.37a1.38,1.38,0,1,1,1,1.65A1.38,1.38,0,0,1,2.69,19.37Zm.73.17a.63.63,0,1,0,.75-.47A.63.63,0,0,0,3.42,19.54Z"/><circle class="cls-5" cx="0.75" cy="39.19" r="0.75" transform="translate(-37.59 31) rotate(-76.84)"/><path class="cls-5" d="M2.06,46.49a.57.57,0,0,0-1-.22l-.43.46-.43.46a.57.57,0,0,0,.29.94l.61.14.61.14a.57.57,0,0,0,.67-.72l-.18-.6Z"/><line class="cls-5" x1="31.47" y1="8.3" x2="33.23" y2="7.23"/><path class="cls-5" d="M33.73,7.23a.5.5,0,0,1-.24.43L31.73,8.73a.5.5,0,1,1-.52-.85L33,6.8a.5.5,0,0,1,.76.43Z"/><line class="cls-5" x1="31.82" y1="6.88" x2="32.89" y2="8.64"/><path class="cls-5" d="M33.39,8.64a.5.5,0,0,1-.93.26L31.39,7.14a.5.5,0,0,1,.85-.52l1.07,1.76A.49.49,0,0,1,33.39,8.64Z"/><path class="cls-5" d="M17.14,7.85a1.38,1.38,0,1,1-1.38-1.37A1.38,1.38,0,0,1,17.14,7.85Zm-2,0a.63.63,0,1,0,.63-.62A.63.63,0,0,0,15.14,7.85Z"/><circle class="cls-5" cx="48.52" cy="8.1" r="0.75"/><path class="cls-5" d="M60.33,6a.57.57,0,0,1,0-1l.54-.31.54-.31a.57.57,0,0,1,.85.49V6.17a.57.57,0,0,1-.85.49l-.54-.31Z"/><path class="cls-6" d="M8.17,38.41a1,1,0,0,1-1-1V18.57a6.35,6.35,0,0,1,6.35-6.35H55.77a1,1,0,0,1,0,2H13.52a4.35,4.35,0,0,0-4.35,4.35V37.41A1,1,0,0,1,8.17,38.41Z"/><path class="cls-6" d="M74.35,59.22H7.17V44.05a1,1,0,0,1,2,0V57.22H72.35V18.57A4.35,4.35,0,0,0,68,14.22H61.16a1,1,0,0,1,0-2H68a6.35,6.35,0,0,1,6.35,6.35Z"/><rect class="cls-3" x="2.26" y="57.14" width="77" height="5.08" rx="2.54" ry="2.54"/><path class="cls-5" d="M79.22,59.82H2.3A3.79,3.79,0,0,1,3,58.06a2.26,2.26,0,0,1,1.79-1H76.72A2.85,2.85,0,0,1,79.22,59.82Z"/><path class="cls-6" d="M76.72,63.22H4.8a3.54,3.54,0,0,1,0-7.08H18.88a1,1,0,0,1,0,2H4.8a1.54,1.54,0,0,0,0,3.08H76.72a1.54,1.54,0,0,0,0-3.08H24.44a1,1,0,0,1,0-2H76.72a3.54,3.54,0,0,1,0,7.08Z"/><path class="cls-4" d="M13.52,20.22h55a0,0,0,0,1,0,0V51.48a.75.75,0,0,1-.75.75H14.27a.75.75,0,0,1-.75-.75V20.22A0,0,0,0,1,13.52,20.22Z"/><path class="cls-6" d="M58.52,47.22H22.29a1.75,1.75,0,0,1-1.75-1.75V27.59a2.37,2.37,0,0,1,2.36-2.36h35a2.37,2.37,0,0,1,2.36,2.36V45.48A1.75,1.75,0,0,1,58.52,47.22Zm-36-2H58.27V27.59a.36.36,0,0,0-.36-.36h-35a.36.36,0,0,0-.36.36Z"/><path class="cls-6" d="M59.27,32.22h-37a1,1,0,1,1,0-2h37a1,1,0,0,1,0,2Z"/><rect class="cls-7" x="28.27" y="36.22" width="9" height="5" rx="2.5" ry="2.5"/><path class="cls-6" d="M54.27,38.22h-13a1,1,0,0,1,0-2h13a1,1,0,0,1,0,2Z"/><path class="cls-6" d="M51.27,41.22h-10a1,1,0,0,1,0-2h10a1,1,0,0,1,0,2Z"/><path class="cls-8" d="M13.51,20.22h55a0,0,0,0,1,0,0v2.25a.75.75,0,0,1-.75.75H14.25a.75.75,0,0,1-.75-.75V20.22a0,0,0,0,1,0,0Z"/><path class="cls-6" d="M67.5,53.5H14a1.75,1.75,0,0,1-1.75-1.75V19.5h57v9.73a1,1,0,0,1-2,0V21.5h-53v30h53V34a1,1,0,0,1,2,0v17.7A1.75,1.75,0,0,1,67.5,53.5Z"/><path class="cls-6" d="M34.77,42.22h-4a3.5,3.5,0,0,1,0-7h4a3.5,3.5,0,0,1,0,7Zm-4-5a1.5,1.5,0,0,0,0,3h4a1.5,1.5,0,0,0,0-3Z"/></g></g></svg>